# xmcd CD database file
#
# Track frame offsets:
#	150
#	19257
#	37600
#	57551
#	83464
#	109386
#	126139
#	148118
#	169098
#	197390
#	215078
#	234765
#	253835
#	273315
#	290809
#
# Disc length: 4129 seconds
#
# Revision: 0
# Processed by: cddbd v1.5PL3 Copyright (c) Steve Scherf et al.
# Submitted via: CDex 1.40Release
#
DISCID=d8101f0f
DTITLE=桑島法子 - BEST SELECTION2
DYEAR=1900
DGENRE=Vocal
TTITLE0=cocoon
TTITLE1=It's Too Late
TTITLE2=解き放て！
TTITLE3=愛が教えてくれた
TTITLE4=月が満ちて行くように
TTITLE5=Sweet
TTITLE6=ホントの笑顔で
TTITLE7=夢の翼を拡げて
TTITLE8=雷弩機兵ガイブレイブのテーマ
TTITLE9=雨のち晴れたら
TTITLE10=Never〜あの日を忘れない〜
TTITLE11=Neo Evolution
TTITLE12=KOKO
TTITLE13=Cry〜ハートが泣いている〜
TTITLE14=海から生まれた子供たち
EXTD=ID3G: 28
EXTT0=
EXTT1=
EXTT2=
EXTT3=
EXTT4=
EXTT5=
EXTT6=
EXTT7=
EXTT8=
EXTT9=
EXTT10=
EXTT11=
EXTT12=
EXTT13=
EXTT14=
PLAYORDER=
